<?xml version="1.0" encoding="UTF-8"?>
<!--Generator: Apple Native CoreSVG 232.5-->
<!DOCTYPE svg
PUBLIC "-//W3C//DTD SVG 1.1//EN"
       "http://www.w3.org/Graphics/SVG/1.1/DTD/svg11.dtd">
<svg version="1.1" xmlns="http://www.w3.org/2000/svg" xmlns:xlink="http://www.w3.org/1999/xlink" width="46.6064" height="44.165">
 <g>
  <rect height="44.165" opacity="0" width="46.6064" x="0" y="0"/>
  <path d="M17.7246 38.3545L28.8818 38.3545L28.8818 24.585C28.8818 23.6572 28.2715 23.0469 27.3438 23.0469L19.2627 23.0469C18.335 23.0469 17.7246 23.6572 17.7246 24.585ZM10.2539 40.625L36.2061 40.625C39.0381 40.625 40.7227 38.9893 40.7227 36.2061L40.7227 15.0146L37.207 12.6709L37.207 35.3027C37.207 36.4502 36.5479 37.1094 35.4492 37.1094L10.9863 37.1094C9.8877 37.1094 9.25293 36.4502 9.25293 35.3027L9.25293 12.6709L5.71289 15.0146L5.71289 36.2061C5.71289 38.9893 7.39746 40.625 10.2539 40.625ZM0 19.3115C0 20.2148 0.708008 21.0693 1.9043 21.0693C2.51465 21.0693 3.02734 20.7275 3.4668 20.3613L22.6807 4.22363C23.0957 3.88184 23.584 3.90625 23.9502 4.22363L43.1641 20.3613C43.6279 20.7275 44.1406 21.0693 44.751 21.0693C45.7764 21.0693 46.6064 20.4346 46.6064 19.3848C46.6064 18.7256 46.4111 18.2861 45.9473 17.8955L25.7812 0.952148C24.2676-0.317383 22.3877-0.317383 20.874 0.952148L0.683594 17.8955C0.219727 18.2861 0 18.8232 0 19.3115ZM35.4736 10.0586L40.7227 14.502L40.7227 5.61523C40.7227 4.6875 40.1123 4.10156 39.209 4.10156L37.0117 4.10156C36.084 4.10156 35.4736 4.6875 35.4736 5.61523Z" fill="#515F7C" fill-opacity="0.85"/>
 </g>
</svg>
